<svg xmlns="http://www.w3.org/2000/svg" viewBox="0 0 851.6 282.8"><defs><style>.cls-1{fill:#fff;}</style></defs><title>Element 1</title><g id="Ebene_2" data-name="Ebene 2"><g id="Ebene_1-2" data-name="Ebene 1"><path class="cls-1" d="M80.2,210.9a3.84,3.84,0,0,1,1.2,2.8,3.75,3.75,0,0,1-1.2,2.9,4,4,0,0,1-2.8,1.1H4a3.74,3.74,0,0,1-2.9-1.2A4,4,0,0,1,0,213.7V81.7a3.84,3.84,0,0,1,1.2-2.8,4.07,4.07,0,0,1,3-1.2,4.07,4.07,0,0,1,3,1.2,3.84,3.84,0,0,1,1.2,2.8v128h69A3.84,3.84,0,0,1,80.2,210.9Z"/><path class="cls-1" d="M186.6,210.9a3.84,3.84,0,0,1,1.2,2.8,3.75,3.75,0,0,1-1.2,2.9,4,4,0,0,1-2.8,1.1H108.4a4.1,4.1,0,0,1-4-4V81.7a4.1,4.1,0,0,1,4-4h75.4a4.1,4.1,0,0,1,4,4,3.75,3.75,0,0,1-1.2,2.9,4,4,0,0,1-2.8,1.1h-71v55.8h62a4.1,4.1,0,0,1,4,4,3.75,3.75,0,0,1-1.2,2.9,4,4,0,0,1-2.8,1.1h-62v60.2h71A3.84,3.84,0,0,1,186.6,210.9Z"/><path class="cls-1" d="M320.59,213.9a3.44,3.44,0,0,1-1.2,2.8,4.91,4.91,0,0,1-5.5.3,3.5,3.5,0,0,1-1.5-1.9l-16.8-41.2.2.4h-67l-16.2,40.8a3.62,3.62,0,0,1-3.6,2.6,4.13,4.13,0,0,1-2.9-1,3.9,3.9,0,0,1-1.3-2.4,3.62,3.62,0,0,1,.2-2l53.8-132.4a3.82,3.82,0,0,1,1.5-2.1,4.71,4.71,0,0,1,2.3-.5,3.89,3.89,0,0,1,4,2.6l53.8,132.4A5.26,5.26,0,0,1,320.59,213.9ZM232,166.3h60.6L262,90.9Z"/><path class="cls-1" d="M449.39,213.5a3.93,3.93,0,0,1-1.1,2.9,3.67,3.67,0,0,1-2.7,1.1,3.26,3.26,0,0,1-1.8-.4q-5.4-3-8.6-10.1T432,183.7q0-16.4-8.8-22.5a34.94,34.94,0,0,0-20.4-6.1H356v58.6a3.83,3.83,0,0,1-1.2,2.8,4.35,4.35,0,0,1-6,0,3.83,3.83,0,0,1-1.2-2.8V81.7a4.1,4.1,0,0,1,4-4h52.8A43.88,43.88,0,0,1,425,82.4a34.43,34.43,0,0,1,19,31.5q0,13.4-7.1,23a34.82,34.82,0,0,1-18.5,13,29.79,29.79,0,0,1,15.8,11.9q6.2,8.9,6.2,21.9,0,13.4,1.7,18.7t5.1,7.5A4.16,4.16,0,0,1,449.39,213.5Zm-44-66.4a33.9,33.9,0,0,0,21.4-10q8.8-8.8,8.8-23a26.36,26.36,0,0,0-8.8-20.4q-8.8-8-23.4-8H356v61.4Z"/><path class="cls-1" d="M584.39,78.8a3.87,3.87,0,0,1,1,2.7V213.3a4,4,0,0,1-4.2,4.4,3.8,3.8,0,0,1-3.2-1.6l-90-123V214.3a3.14,3.14,0,0,1-1.1,2.4,3.86,3.86,0,0,1-2.7,1,3.77,3.77,0,0,1-2.8-1,3.26,3.26,0,0,1-1-2.4V81.7a3.86,3.86,0,0,1,1.1-3,3.62,3.62,0,0,1,2.5-1,3.8,3.8,0,0,1,3,1.4l90.8,123.8V81.5a3.76,3.76,0,0,1,3.8-3.8A3.6,3.6,0,0,1,584.39,78.8Z"/><path class="cls-1" d="M849.6,270a8.83,8.83,0,0,1,2,4.8,7.49,7.49,0,0,1-2.4,5.8,8.56,8.56,0,0,1-6,2.2q-4.41,0-6.4-3.2L745.2,154.8,654,279.6a6.62,6.62,0,0,1-6,3.2,7.19,7.19,0,0,1-5.6-2.2,6.77,6.77,0,0,1-2-4.6,10.68,10.68,0,0,1,2-5.2l94-128.4L641.6,13.2A7.43,7.43,0,0,1,640,8.4a7.49,7.49,0,0,1,2.4-5.8A8,8,0,0,1,648,.4q4.8,0,6.8,3.2l91.6,125.2L837.6,3.2a7.25,7.25,0,0,1,6-3.2,8.87,8.87,0,0,1,5.8,1.8,5.7,5.7,0,0,1,2.2,4.6,9.59,9.59,0,0,1-2,5.6l-94,129.6Z"/></g></g></svg>